<svg width="159" height="159" viewBox="0 0 159 159" fill="none" xmlns="http://www.w3.org/2000/svg">
<g opacity="0.5">
<g filter="url(#filter0_i_130_383)">
<path d="M77.0809 3.29824C78.2796 1.66393 80.7204 1.66394 81.9191 3.29824L101.666 30.2221C102.257 31.0272 103.209 31.4857 104.207 31.4454L137.569 30.0977C139.594 30.0159 141.116 31.9242 140.585 33.8803L131.847 66.1061C131.586 67.0696 131.821 68.1 132.475 68.8548L154.33 94.0981C155.656 95.6303 155.113 98.01 153.253 98.8149L122.61 112.076C121.694 112.472 121.035 113.299 120.852 114.28L114.742 147.106C114.371 149.098 112.172 150.157 110.383 149.205L80.9097 133.515C80.0284 133.046 78.9716 133.046 78.0903 133.515L48.6168 149.205C46.8277 150.157 44.6286 149.098 44.2578 147.106L38.148 114.28C37.9653 113.299 37.3063 112.472 36.3901 112.076L5.74708 98.8149C3.88701 98.01 3.34388 95.6303 4.67049 94.0981L26.5252 68.8548C27.1786 68.1 27.4138 67.0696 27.1525 66.1061L18.4148 33.8803C17.8844 31.9242 19.4062 30.0159 21.4313 30.0977L54.7935 31.4454C55.791 31.4857 56.7432 31.0272 57.3337 30.2221L77.0809 3.29824Z" fill="white"/>
<path d="M77.0809 3.29824C78.2796 1.66393 80.7204 1.66394 81.9191 3.29824L101.666 30.2221C102.257 31.0272 103.209 31.4857 104.207 31.4454L137.569 30.0977C139.594 30.0159 141.116 31.9242 140.585 33.8803L131.847 66.1061C131.586 67.0696 131.821 68.1 132.475 68.8548L154.33 94.0981C155.656 95.6303 155.113 98.01 153.253 98.8149L122.61 112.076C121.694 112.472 121.035 113.299 120.852 114.28L114.742 147.106C114.371 149.098 112.172 150.157 110.383 149.205L80.9097 133.515C80.0284 133.046 78.9716 133.046 78.0903 133.515L48.6168 149.205C46.8277 150.157 44.6286 149.098 44.2578 147.106L38.148 114.28C37.9653 113.299 37.3063 112.472 36.3901 112.076L5.74708 98.8149C3.88701 98.01 3.34388 95.6303 4.67049 94.0981L26.5252 68.8548C27.1786 68.1 27.4138 67.0696 27.1525 66.1061L18.4148 33.8803C17.8844 31.9242 19.4062 30.0159 21.4313 30.0977L54.7935 31.4454C55.791 31.4857 56.7432 31.0272 57.3337 30.2221L77.0809 3.29824Z" fill="white"/>
<path d="M77.0809 3.29824C78.2796 1.66393 80.7204 1.66394 81.9191 3.29824L101.666 30.2221C102.257 31.0272 103.209 31.4857 104.207 31.4454L137.569 30.0977C139.594 30.0159 141.116 31.9242 140.585 33.8803L131.847 66.1061C131.586 67.0696 131.821 68.1 132.475 68.8548L154.33 94.0981C155.656 95.6303 155.113 98.01 153.253 98.8149L122.61 112.076C121.694 112.472 121.035 113.299 120.852 114.28L114.742 147.106C114.371 149.098 112.172 150.157 110.383 149.205L80.9097 133.515C80.0284 133.046 78.9716 133.046 78.0903 133.515L48.6168 149.205C46.8277 150.157 44.6286 149.098 44.2578 147.106L38.148 114.28C37.9653 113.299 37.3063 112.472 36.3901 112.076L5.74708 98.8149C3.88701 98.01 3.34388 95.6303 4.67049 94.0981L26.5252 68.8548C27.1786 68.1 27.4138 67.0696 27.1525 66.1061L18.4148 33.8803C17.8844 31.9242 19.4062 30.0159 21.4313 30.0977L54.7935 31.4454C55.791 31.4857 56.7432 31.0272 57.3337 30.2221L77.0809 3.29824Z" fill="white"/>
<path d="M77.0809 3.29824C78.2796 1.66393 80.7204 1.66394 81.9191 3.29824L101.666 30.2221C102.257 31.0272 103.209 31.4857 104.207 31.4454L137.569 30.0977C139.594 30.0159 141.116 31.9242 140.585 33.8803L131.847 66.1061C131.586 67.0696 131.821 68.1 132.475 68.8548L154.33 94.0981C155.656 95.6303 155.113 98.01 153.253 98.8149L122.61 112.076C121.694 112.472 121.035 113.299 120.852 114.28L114.742 147.106C114.371 149.098 112.172 150.157 110.383 149.205L80.9097 133.515C80.0284 133.046 78.9716 133.046 78.0903 133.515L48.6168 149.205C46.8277 150.157 44.6286 149.098 44.2578 147.106L38.148 114.28C37.9653 113.299 37.3063 112.472 36.3901 112.076L5.74708 98.8149C3.88701 98.01 3.34388 95.6303 4.67049 94.0981L26.5252 68.8548C27.1786 68.1 27.4138 67.0696 27.1525 66.1061L18.4148 33.8803C17.8844 31.9242 19.4062 30.0159 21.4313 30.0977L54.7935 31.4454C55.791 31.4857 56.7432 31.0272 57.3337 30.2221L77.0809 3.29824Z" fill="white"/>
<path d="M77.0809 3.29824C78.2796 1.66393 80.7204 1.66394 81.9191 3.29824L101.666 30.2221C102.257 31.0272 103.209 31.4857 104.207 31.4454L137.569 30.0977C139.594 30.0159 141.116 31.9242 140.585 33.8803L131.847 66.1061C131.586 67.0696 131.821 68.1 132.475 68.8548L154.33 94.0981C155.656 95.6303 155.113 98.01 153.253 98.8149L122.61 112.076C121.694 112.472 121.035 113.299 120.852 114.28L114.742 147.106C114.371 149.098 112.172 150.157 110.383 149.205L80.9097 133.515C80.0284 133.046 78.9716 133.046 78.0903 133.515L48.6168 149.205C46.8277 150.157 44.6286 149.098 44.2578 147.106L38.148 114.28C37.9653 113.299 37.3063 112.472 36.3901 112.076L5.74708 98.8149C3.88701 98.01 3.34388 95.6303 4.67049 94.0981L26.5252 68.8548C27.1786 68.1 27.4138 67.0696 27.1525 66.1061L18.4148 33.8803C17.8844 31.9242 19.4062 30.0159 21.4313 30.0977L54.7935 31.4454C55.791 31.4857 56.7432 31.0272 57.3337 30.2221L77.0809 3.29824Z" fill="white"/>
</g>
<g filter="url(#filter1_di_130_383)">
<path d="M77.0809 24.2982C78.2796 22.6639 80.7204 22.6639 81.9191 24.2982L95.5616 42.8988C96.152 43.7038 97.1042 44.1624 98.1018 44.1221L121.15 43.191C123.175 43.1091 124.697 45.0174 124.167 46.9736L118.13 69.237C117.869 70.2005 118.104 71.2309 118.758 71.9857L133.856 89.4251C135.183 90.9574 134.639 93.337 132.779 94.142L111.61 103.303C110.693 103.7 110.034 104.526 109.852 105.508L105.631 128.185C105.26 130.178 103.061 131.237 101.272 130.285L80.9097 119.445C80.0284 118.976 78.9716 118.976 78.0903 119.445L57.7284 130.285C55.9393 131.237 53.7402 130.178 53.3693 128.185L49.1483 105.508C48.9657 104.526 48.3067 103.7 47.3905 103.303L26.2206 94.142C24.3605 93.337 23.8174 90.9574 25.144 89.4251L40.2424 71.9857C40.8959 71.2309 41.131 70.2005 40.8698 69.237L34.8333 46.9736C34.3029 45.0174 35.8247 43.1091 37.8498 43.191L60.8982 44.1221C61.8958 44.1624 62.848 43.7038 63.4384 42.8988L77.0809 24.2982Z" fill="white"/>
<path d="M77.0809 24.2982C78.2796 22.6639 80.7204 22.6639 81.9191 24.2982L95.5616 42.8988C96.152 43.7038 97.1042 44.1624 98.1018 44.1221L121.15 43.191C123.175 43.1091 124.697 45.0174 124.167 46.9736L118.13 69.237C117.869 70.2005 118.104 71.2309 118.758 71.9857L133.856 89.4251C135.183 90.9574 134.639 93.337 132.779 94.142L111.61 103.303C110.693 103.7 110.034 104.526 109.852 105.508L105.631 128.185C105.26 130.178 103.061 131.237 101.272 130.285L80.9097 119.445C80.0284 118.976 78.9716 118.976 78.0903 119.445L57.7284 130.285C55.9393 131.237 53.7402 130.178 53.3693 128.185L49.1483 105.508C48.9657 104.526 48.3067 103.7 47.3905 103.303L26.2206 94.142C24.3605 93.337 23.8174 90.9574 25.144 89.4251L40.2424 71.9857C40.8959 71.2309 41.131 70.2005 40.8698 69.237L34.8333 46.9736C34.3029 45.0174 35.8247 43.1091 37.8498 43.191L60.8982 44.1221C61.8958 44.1624 62.848 43.7038 63.4384 42.8988L77.0809 24.2982Z" fill="white"/>
<path d="M77.0809 24.2982C78.2796 22.6639 80.7204 22.6639 81.9191 24.2982L95.5616 42.8988C96.152 43.7038 97.1042 44.1624 98.1018 44.1221L121.15 43.191C123.175 43.1091 124.697 45.0174 124.167 46.9736L118.13 69.237C117.869 70.2005 118.104 71.2309 118.758 71.9857L133.856 89.4251C135.183 90.9574 134.639 93.337 132.779 94.142L111.61 103.303C110.693 103.7 110.034 104.526 109.852 105.508L105.631 128.185C105.26 130.178 103.061 131.237 101.272 130.285L80.9097 119.445C80.0284 118.976 78.9716 118.976 78.0903 119.445L57.7284 130.285C55.9393 131.237 53.7402 130.178 53.3693 128.185L49.1483 105.508C48.9657 104.526 48.3067 103.7 47.3905 103.303L26.2206 94.142C24.3605 93.337 23.8174 90.9574 25.144 89.4251L40.2424 71.9857C40.8959 71.2309 41.131 70.2005 40.8698 69.237L34.8333 46.9736C34.3029 45.0174 35.8247 43.1091 37.8498 43.191L60.8982 44.1221C61.8958 44.1624 62.848 43.7038 63.4384 42.8988L77.0809 24.2982Z" fill="white"/>
<path d="M77.0809 24.2982C78.2796 22.6639 80.7204 22.6639 81.9191 24.2982L95.5616 42.8988C96.152 43.7038 97.1042 44.1624 98.1018 44.1221L121.15 43.191C123.175 43.1091 124.697 45.0174 124.167 46.9736L118.13 69.237C117.869 70.2005 118.104 71.2309 118.758 71.9857L133.856 89.4251C135.183 90.9574 134.639 93.337 132.779 94.142L111.61 103.303C110.693 103.7 110.034 104.526 109.852 105.508L105.631 128.185C105.26 130.178 103.061 131.237 101.272 130.285L80.9097 119.445C80.0284 118.976 78.9716 118.976 78.0903 119.445L57.7284 130.285C55.9393 131.237 53.7402 130.178 53.3693 128.185L49.1483 105.508C48.9657 104.526 48.3067 103.7 47.3905 103.303L26.2206 94.142C24.3605 93.337 23.8174 90.9574 25.144 89.4251L40.2424 71.9857C40.8959 71.2309 41.131 70.2005 40.8698 69.237L34.8333 46.9736C34.3029 45.0174 35.8247 43.1091 37.8498 43.191L60.8982 44.1221C61.8958 44.1624 62.848 43.7038 63.4384 42.8988L77.0809 24.2982Z" fill="white"/>
<path d="M77.0809 24.2982C78.2796 22.6639 80.7204 22.6639 81.9191 24.2982L95.5616 42.8988C96.152 43.7038 97.1042 44.1624 98.1018 44.1221L121.15 43.191C123.175 43.1091 124.697 45.0174 124.167 46.9736L118.13 69.237C117.869 70.2005 118.104 71.2309 118.758 71.9857L133.856 89.4251C135.183 90.9574 134.639 93.337 132.779 94.142L111.61 103.303C110.693 103.7 110.034 104.526 109.852 105.508L105.631 128.185C105.26 130.178 103.061 131.237 101.272 130.285L80.9097 119.445C80.0284 118.976 78.9716 118.976 78.0903 119.445L57.7284 130.285C55.9393 131.237 53.7402 130.178 53.3693 128.185L49.1483 105.508C48.9657 104.526 48.3067 103.7 47.3905 103.303L26.2206 94.142C24.3605 93.337 23.8174 90.9574 25.144 89.4251L40.2424 71.9857C40.8959 71.2309 41.131 70.2005 40.8698 69.237L34.8333 46.9736C34.3029 45.0174 35.8247 43.1091 37.8498 43.191L60.8982 44.1221C61.8958 44.1624 62.848 43.7038 63.4384 42.8988L77.0809 24.2982Z" fill="white"/>
</g>
<g filter="url(#filter2_di_130_383)">
<path d="M77.0809 36.2982C78.2796 34.6639 80.7204 34.6639 81.9191 36.2982L92.0732 50.1426C92.6636 50.9476 93.6158 51.4062 94.6133 51.3659L111.768 50.6728C113.793 50.591 115.315 52.4993 114.785 54.4555L110.292 71.026C110.031 71.9896 110.266 73.02 110.919 73.7747L122.157 86.7549C123.483 88.2872 122.94 90.6668 121.08 91.4717L105.324 98.2906C104.407 98.6871 103.748 99.5134 103.566 100.495L100.424 117.374C100.053 119.366 97.8541 120.425 96.065 119.473L80.9097 111.405C80.0284 110.936 78.9716 110.936 78.0903 111.405L62.935 119.473C61.1459 120.425 58.9468 119.366 58.5759 117.374L55.4343 100.495C55.2516 99.5134 54.5926 98.6871 53.6764 98.2906L37.9197 91.4717C36.0596 90.6668 35.5165 88.2872 36.8431 86.7549L48.0808 73.7747C48.7343 73.02 48.9695 71.9896 48.7082 71.026L44.2152 54.4555C43.6848 52.4993 45.2067 50.591 47.2318 50.6728L64.3867 51.3659C65.3842 51.4062 66.3364 50.9476 66.9268 50.1426L77.0809 36.2982Z" fill="white"/>
<path d="M77.0809 36.2982C78.2796 34.6639 80.7204 34.6639 81.9191 36.2982L92.0732 50.1426C92.6636 50.9476 93.6158 51.4062 94.6133 51.3659L111.768 50.6728C113.793 50.591 115.315 52.4993 114.785 54.4555L110.292 71.026C110.031 71.9896 110.266 73.02 110.919 73.7747L122.157 86.7549C123.483 88.2872 122.94 90.6668 121.08 91.4717L105.324 98.2906C104.407 98.6871 103.748 99.5134 103.566 100.495L100.424 117.374C100.053 119.366 97.8541 120.425 96.065 119.473L80.9097 111.405C80.0284 110.936 78.9716 110.936 78.0903 111.405L62.935 119.473C61.1459 120.425 58.9468 119.366 58.5759 117.374L55.4343 100.495C55.2516 99.5134 54.5926 98.6871 53.6764 98.2906L37.9197 91.4717C36.0596 90.6668 35.5165 88.2872 36.8431 86.7549L48.0808 73.7747C48.7343 73.02 48.9695 71.9896 48.7082 71.026L44.2152 54.4555C43.6848 52.4993 45.2067 50.591 47.2318 50.6728L64.3867 51.3659C65.3842 51.4062 66.3364 50.9476 66.9268 50.1426L77.0809 36.2982Z" fill="white"/>
<path d="M77.0809 36.2982C78.2796 34.6639 80.7204 34.6639 81.9191 36.2982L92.0732 50.1426C92.6636 50.9476 93.6158 51.4062 94.6133 51.3659L111.768 50.6728C113.793 50.591 115.315 52.4993 114.785 54.4555L110.292 71.026C110.031 71.9896 110.266 73.02 110.919 73.7747L122.157 86.7549C123.483 88.2872 122.94 90.6668 121.08 91.4717L105.324 98.2906C104.407 98.6871 103.748 99.5134 103.566 100.495L100.424 117.374C100.053 119.366 97.8541 120.425 96.065 119.473L80.9097 111.405C80.0284 110.936 78.9716 110.936 78.0903 111.405L62.935 119.473C61.1459 120.425 58.9468 119.366 58.5759 117.374L55.4343 100.495C55.2516 99.5134 54.5926 98.6871 53.6764 98.2906L37.9197 91.4717C36.0596 90.6668 35.5165 88.2872 36.8431 86.7549L48.0808 73.7747C48.7343 73.02 48.9695 71.9896 48.7082 71.026L44.2152 54.4555C43.6848 52.4993 45.2067 50.591 47.2318 50.6728L64.3867 51.3659C65.3842 51.4062 66.3364 50.9476 66.9268 50.1426L77.0809 36.2982Z" fill="white"/>
<path d="M77.0809 36.2982C78.2796 34.6639 80.7204 34.6639 81.9191 36.2982L92.0732 50.1426C92.6636 50.9476 93.6158 51.4062 94.6133 51.3659L111.768 50.6728C113.793 50.591 115.315 52.4993 114.785 54.4555L110.292 71.026C110.031 71.9896 110.266 73.02 110.919 73.7747L122.157 86.7549C123.483 88.2872 122.94 90.6668 121.08 91.4717L105.324 98.2906C104.407 98.6871 103.748 99.5134 103.566 100.495L100.424 117.374C100.053 119.366 97.8541 120.425 96.065 119.473L80.9097 111.405C80.0284 110.936 78.9716 110.936 78.0903 111.405L62.935 119.473C61.1459 120.425 58.9468 119.366 58.5759 117.374L55.4343 100.495C55.2516 99.5134 54.5926 98.6871 53.6764 98.2906L37.9197 91.4717C36.0596 90.6668 35.5165 88.2872 36.8431 86.7549L48.0808 73.7747C48.7343 73.02 48.9695 71.9896 48.7082 71.026L44.2152 54.4555C43.6848 52.4993 45.2067 50.591 47.2318 50.6728L64.3867 51.3659C65.3842 51.4062 66.3364 50.9476 66.9268 50.1426L77.0809 36.2982Z" fill="white"/>
<path d="M77.0809 36.2982C78.2796 34.6639 80.7204 34.6639 81.9191 36.2982L92.0732 50.1426C92.6636 50.9476 93.6158 51.4062 94.6133 51.3659L111.768 50.6728C113.793 50.591 115.315 52.4993 114.785 54.4555L110.292 71.026C110.031 71.9896 110.266 73.02 110.919 73.7747L122.157 86.7549C123.483 88.2872 122.94 90.6668 121.08 91.4717L105.324 98.2906C104.407 98.6871 103.748 99.5134 103.566 100.495L100.424 117.374C100.053 119.366 97.8541 120.425 96.065 119.473L80.9097 111.405C80.0284 110.936 78.9716 110.936 78.0903 111.405L62.935 119.473C61.1459 120.425 58.9468 119.366 58.5759 117.374L55.4343 100.495C55.2516 99.5134 54.5926 98.6871 53.6764 98.2906L37.9197 91.4717C36.0596 90.6668 35.5165 88.2872 36.8431 86.7549L48.0808 73.7747C48.7343 73.02 48.9695 71.9896 48.7082 71.026L44.2152 54.4555C43.6848 52.4993 45.2067 50.591 47.2318 50.6728L64.3867 51.3659C65.3842 51.4062 66.3364 50.9476 66.9268 50.1426L77.0809 36.2982Z" fill="white"/>
</g>
</g>
<defs>
<filter id="filter0_i_130_383" x="3.9375" y="2.07251" width="151.125" height="147.487" filterUnits="userSpaceOnUse" color-interpolation-filters="sRGB">
<feFlood flood-opacity="0" result="BackgroundImageFix"/>
<feBlend mode="normal" in="SourceGraphic" in2="BackgroundImageFix" result="shape"/>
<feColorMatrix in="SourceAlpha" type="matrix" values="0 0 0 0 0 0 0 0 0 0 0 0 0 0 0 0 0 0 127 0" result="hardAlpha"/>
<feOffset/>
<feGaussianBlur stdDeviation="6"/>
<feComposite in2="hardAlpha" operator="arithmetic" k2="-1" k3="1"/>
<feColorMatrix type="matrix" values="0 0 0 0 0 0 0 0 0 0 0 0 0 0 0 0 0 0 0.25 0"/>
<feBlend mode="normal" in2="shape" result="effect1_innerShadow_130_383"/>
</filter>
<filter id="filter1_di_130_383" x="13.4111" y="12.0725" width="132.178" height="129.566" filterUnits="userSpaceOnUse" color-interpolation-filters="sRGB">
<feFlood flood-opacity="0" result="BackgroundImageFix"/>
<feColorMatrix in="SourceAlpha" type="matrix" values="0 0 0 0 0 0 0 0 0 0 0 0 0 0 0 0 0 0 127 0" result="hardAlpha"/>
<feOffset/>
<feGaussianBlur stdDeviation="5.5"/>
<feComposite in2="hardAlpha" operator="out"/>
<feColorMatrix type="matrix" values="0 0 0 0 0.375 0 0 0 0 0 0 0 0 0 0 0 0 0 0.25 0"/>
<feBlend mode="normal" in2="BackgroundImageFix" result="effect1_dropShadow_130_383"/>
<feBlend mode="normal" in="SourceGraphic" in2="effect1_dropShadow_130_383" result="shape"/>
<feColorMatrix in="SourceAlpha" type="matrix" values="0 0 0 0 0 0 0 0 0 0 0 0 0 0 0 0 0 0 127 0" result="hardAlpha"/>
<feOffset/>
<feGaussianBlur stdDeviation="5.5"/>
<feComposite in2="hardAlpha" operator="arithmetic" k2="-1" k3="1"/>
<feColorMatrix type="matrix" values="0 0 0 0 0.404167 0 0 0 0 0 0 0 0 0 0 0 0 0 0.25 0"/>
<feBlend mode="normal" in2="shape" result="effect2_innerShadow_130_383"/>
</filter>
<filter id="filter2_di_130_383" x="28.1104" y="27.0725" width="102.779" height="100.755" filterUnits="userSpaceOnUse" color-interpolation-filters="sRGB">
<feFlood flood-opacity="0" result="BackgroundImageFix"/>
<feColorMatrix in="SourceAlpha" type="matrix" values="0 0 0 0 0 0 0 0 0 0 0 0 0 0 0 0 0 0 127 0" result="hardAlpha"/>
<feOffset/>
<feGaussianBlur stdDeviation="4"/>
<feComposite in2="hardAlpha" operator="out"/>
<feColorMatrix type="matrix" values="0 0 0 0 0 0 0 0 0 0 0 0 0 0 0 0 0 0 0.25 0"/>
<feBlend mode="normal" in2="BackgroundImageFix" result="effect1_dropShadow_130_383"/>
<feBlend mode="normal" in="SourceGraphic" in2="effect1_dropShadow_130_383" result="shape"/>
<feColorMatrix in="SourceAlpha" type="matrix" values="0 0 0 0 0 0 0 0 0 0 0 0 0 0 0 0 0 0 127 0" result="hardAlpha"/>
<feOffset/>
<feGaussianBlur stdDeviation="5"/>
<feComposite in2="hardAlpha" operator="arithmetic" k2="-1" k3="1"/>
<feColorMatrix type="matrix" values="0 0 0 0 0 0 0 0 0 0 0 0 0 0 0 0 0 0 0.25 0"/>
<feBlend mode="normal" in2="shape" result="effect2_innerShadow_130_383"/>
</filter>
</defs>
</svg>
